<svg xmlns="http://www.w3.org/2000/svg" width="1200" height="190" viewBox="0 0 1200 190" role="img" aria-labelledby="title desc">
  <title id="title">Technical toolkit</title><desc id="desc">Animated icons for Power BI, SQL Server, Python, Excel, DAX, Power Query, Pandas, and Git.</desc>
  <defs>
    <linearGradient id="bg" x1="0" y1="0" x2="1" y2="1"><stop stop-color="#050b18"/><stop offset="1" stop-color="#0b1730"/></linearGradient>
    <pattern id="grid" width="25" height="25" patternUnits="userSpaceOnUse"><path d="M25 0H0V25" fill="none" stroke="#38bdf8" stroke-opacity=".045"/></pattern>
  </defs>
  <rect width="1200" height="190" rx="22" fill="url(#bg)"/><rect width="1200" height="190" rx="22" fill="url(#grid)"/>
  <g font-family="Arial, Helvetica, sans-serif">
    <text x="38" y="37" fill="#94a3b8" font-size="12" font-weight="700" letter-spacing="2">TECHNICAL TOOLKIT</text>
    <g transform="translate(48 57)">
      <g><circle cx="55" cy="42" r="36" fill="#2d2705" stroke="#f2c811"><animate attributeName="stroke-opacity" values=".45;1;.45" dur="3s" repeatCount="indefinite"/></circle><path d="M38 56V39h8v17m5 0V30h8v26m5 0V20h8v36" stroke="#f2c811" stroke-width="5"/><text x="55" y="95" fill="#f8fafc" font-size="11" font-weight="700" text-anchor="middle">POWER BI</text></g>
      <g transform="translate(140)"><circle cx="55" cy="42" r="36" fill="#321414" stroke="#ef4444"><animate attributeName="stroke-opacity" values=".45;1;.45" dur="3.3s" repeatCount="indefinite"/></circle><ellipse cx="55" cy="29" rx="17" ry="7" fill="none" stroke="#f87171" stroke-width="3"/><path d="M38 29v25c0 4 8 7 17 7s17-3 17-7V29M38 41c0 4 8 7 17 7s17-3 17-7" fill="none" stroke="#f87171" stroke-width="3"/><text x="55" y="95" fill="#f8fafc" font-size="11" font-weight="700" text-anchor="middle">SQL SERVER</text></g>
      <g transform="translate(280)"><circle cx="55" cy="42" r="36" fill="#122641" stroke="#3b82f6"><animate attributeName="stroke-opacity" values=".45;1;.45" dur="3.6s" repeatCount="indefinite"/></circle><path d="M40 29c0-8 5-11 15-11h10v18H49c-6 0-9 3-9 8zm30 26c0 8-5 11-15 11H45V48h16c6 0 9-3 9-8z" fill="none" stroke="#60a5fa" stroke-width="3"/><circle cx="59" cy="24" r="2.5" fill="#fbbf24"/><circle cx="51" cy="60" r="2.5" fill="#fbbf24"/><text x="55" y="95" fill="#f8fafc" font-size="11" font-weight="700" text-anchor="middle">PYTHON</text></g>
      <g transform="translate(420)"><circle cx="55" cy="42" r="36" fill="#07372c" stroke="#10b981"><animate attributeName="stroke-opacity" values=".45;1;.45" dur="3.9s" repeatCount="indefinite"/></circle><path d="M36 21h38v42H36zM36 31h38M48 31v32" fill="none" stroke="#34d399" stroke-width="3"/><path d="M41 39l13 16m0-16L41 55" stroke="#d1fae5" stroke-width="3"/><text x="55" y="95" fill="#f8fafc" font-size="11" font-weight="700" text-anchor="middle">EXCEL</text></g>
      <g transform="translate(560)"><circle cx="55" cy="42" r="36" fill="#2d1748" stroke="#a855f7"><animate attributeName="stroke-opacity" values=".45;1;.45" dur="4.2s" repeatCount="indefinite"/></circle><text x="55" y="50" fill="#d8b4fe" font-size="20" font-weight="800" text-anchor="middle">DAX</text><text x="55" y="95" fill="#f8fafc" font-size="11" font-weight="700" text-anchor="middle">DAX</text></g>
      <g transform="translate(700)"><circle cx="55" cy="42" r="36" fill="#11324a" stroke="#06b6d4"><animate attributeName="stroke-opacity" values=".45;1;.45" dur="4.5s" repeatCount="indefinite"/></circle><path d="M36 22h38L60 40v19l-10 6V40z" fill="none" stroke="#22d3ee" stroke-width="3" stroke-linejoin="round"/><path d="M64 49h13m-5-5l5 5-5 5" fill="none" stroke="#67e8f9" stroke-width="3" stroke-linecap="round"/><text x="55" y="95" fill="#f8fafc" font-size="11" font-weight="700" text-anchor="middle">POWER QUERY</text></g>
      <g transform="translate(840)"><circle cx="55" cy="42" r="36" fill="#1f2352" stroke="#6366f1"><animate attributeName="stroke-opacity" values=".45;1;.45" dur="4.8s" repeatCount="indefinite"/></circle><path d="M39 22h14v38H39zm18 0h14v18H57zm0 22h14v16H57" fill="none" stroke="#818cf8" stroke-width="3"/><text x="55" y="95" fill="#f8fafc" font-size="11" font-weight="700" text-anchor="middle">PANDAS</text></g>
      <g transform="translate(980)"><circle cx="55" cy="42" r="36" fill="#3a1b13" stroke="#f97316"><animate attributeName="stroke-opacity" values=".45;1;.45" dur="5.1s" repeatCount="indefinite"/></circle><path d="M37 37l18-18 18 18-18 18z" fill="none" stroke="#fb923c" stroke-width="3"/><circle cx="49" cy="31" r="3" fill="#fed7aa"/><circle cx="61" cy="43" r="3" fill="#fed7aa"/><circle cx="49" cy="49" r="3" fill="#fed7aa"/><path d="M49 34v12m3 1l6-3" stroke="#fed7aa" stroke-width="2"/><text x="55" y="95" fill="#f8fafc" font-size="11" font-weight="700" text-anchor="middle">GIT</text></g>
    </g>
  </g>
</svg>
